# xmcd
#
# Track frame offsets:
#	150
#	13742
#	30882
#	52250
#	68893
#
# Disc length: 1263 seconds
#
# Revision: 1
# Processed by: cddbd v1.5.2PL0 Copyright (c) Steve Scherf et al.
# Submitted via: audiograbber 1.83.01
#
DISCID=3b04ed05
DTITLE=Both Sides Of The Line - Both Sides Of The Line EP
DYEAR=2012
DGENRE=Country
TTITLE0=Good Feeling
TTITLE1=Red Shoes
TTITLE2=Chicks Hotel
TTITLE3=Lucky Ones
TTITLE4=Waiting
EXTD=
EXTT0=
EXTT1=
EXTT2=
EXTT3=
EXTT4=
PLAYORDER=
